<?xml version="1.0" encoding="UTF-8" standalone="no"?>
<svg
   xmlns:dc="http://purl.org/dc/elements/1.1/"
   xmlns:cc="http://creativecommons.org/ns#"
   xmlns:rdf="http://www.w3.org/1999/02/22-rdf-syntax-ns#"
   xmlns="http://www.w3.org/2000/svg"
   xmlns:xlink="http://www.w3.org/1999/xlink"
   xmlns:sodipodi="http://sodipodi.sourceforge.net/DTD/sodipodi-0.dtd"
   xmlns:inkscape="http://www.inkscape.org/namespaces/inkscape"
   width="644" height="740" viewBox="48 38 644 740"
   version="1.1"
   inkscape:version="0.48.2 r9819"
   sodipodi:docname="lens.svg">
  <metadata>
    <rdf:RDF>
      <cc:Work rdf:about="">
        <dc:format>image/svg+xml</dc:format>
        <dc:type rdf:resource="http://purl.org/dc/dcmitype/StillImage" />
        <dc:title>Slightly simplified cross-section through a Leica lens.</dc:title>
      </cc:Work>
    </rdf:RDF>
  </metadata>
  <g
     inkscape:label="Layer 1"
     inkscape:groupmode="layer"
     id="layer1">
    <path
       style="fill:#999999;stroke:#000000;stroke-width:1px;stroke-linecap:butt;stroke-linejoin:miter;stroke-opacity:1"
       d="M 216.17264,204.8442 C 310.11683,186.66145 403.35111,184.19327 524,212.36218 l 0,24 -27.00495,17.97949 C 415.17391,187.90445 317.65581,186.59712 252.53814,249.29091 l -36.75418,-14.72336 z"
       id="path2996"
       inkscape:connector-curvature="0"
       sodipodi:nodetypes="ccccccc" />
    <path
       style="fill:#ececec;stroke:#000000;stroke-width:1px;stroke-linecap:butt;stroke-linejoin:miter;stroke-opacity:1"
       d="m 235.35714,260.57647 c 86.60168,-20.47705 179.11387,-17.12369 268.57144,4.28571 l 0.0714,23.5 C 411.14845,261.20317 320.59597,255.16549 235.35714,287.00504 z"
       id="path2998"
       inkscape:connector-curvature="0"
       sodipodi:nodetypes="ccccc" />
    <path
       style="fill:#999999;stroke:#000000;stroke-width:1px;stroke-linecap:butt;stroke-linejoin:miter;stroke-opacity:1"
       d="M 246.42857,302.00504 C 323.52125,267.28406 405.39895,261.11453 492,304.36218 l 0,8 C 410.44759,299.56896 327.5048,300.03648 247.85714,309.1479 z"
       id="path3768"
       inkscape:connector-curvature="0"
       sodipodi:nodetypes="ccccc" />
    <path
       style="fill:#ececec;stroke:#000000;stroke-width:1px;stroke-linecap:butt;stroke-linejoin:miter;stroke-opacity:1"
       d="m 279.28572,332.36218 c 53.20404,-17.54631 112.416,-20.24953 181.78571,2.14286 l 0,19.64286 C 400.13205,363.75574 339.63,364.17987 279.64286,353.79075 z"
       id="path3770"
       inkscape:connector-curvature="0"
       sodipodi:nodetypes="ccccc" />
    <path
       sodipodi:nodetypes="ccccccccccccccccccccccccccccccccccccccccccccccc"
       inkscape:connector-curvature="0"
       id="path3916"
       d="m 172,188.36218 4,4 -4,4 4,4 -4,4 4,4 -4,4 0,8 20,0 0,24 24,0 8,0 8,8 0,4 -8,0 0,12 8,0 12,16 0,20 0,20 -4,4 -8,0 -4,-4 0,-12 -8,-4 0,-32 -12,-16 -12,0 0,48 -8,0 -4,-4 4,-4 -4,-4 4,-4 -4,-4 4,-4 -4,-4 4,-4 -4,-4 4,-4 0,-20 -4,-4 -20,0 -4,-4 0,-60 12,0 z"
       style="fill:#e6e6e6;stroke:#000000;stroke-width:1px;stroke-linecap:butt;stroke-linejoin:miter;stroke-opacity:1" />
    <path
       sodipodi:nodetypes="cccccccccccc"
       inkscape:connector-curvature="0"
       id="path3918"
       d="m 216,208.36218 -16,-16 -24,0 -4,4 4,4 -4,4 4,4 0,8 20,0 0,28 20,0 z"
       style="fill:#ff9955;stroke:#000000;stroke-width:1px;stroke-linecap:butt;stroke-linejoin:miter;stroke-opacity:1" />
    <rect
       ry="0"
       y="380.36218"
       x="-316"
       height="7.3456593"
       width="42.990665"
       id="rect3920"
       style="fill:#000000;fill-opacity:1;fill-rule:nonzero;stroke:#000000;stroke-width:2;stroke-miterlimit:4;stroke-dasharray:none;stroke-dashoffset:0"
       transform="scale(-1,1)" />
    <path
       sodipodi:nodetypes="ccccccccccc"
       inkscape:connector-curvature="0"
       id="path3922"
       d="m 200,192.36218 -8,-8 -8,0 0,-12 -20,-12 0,-12 -8,-4 0,20 20,12 0,16 24,0"
       style="fill:#e6e6e6;stroke:#000000;stroke-width:1px;stroke-linecap:butt;stroke-linejoin:miter;stroke-opacity:1" />
    <path
       sodipodi:nodetypes="ccccccccccccccccccccc"
       inkscape:connector-curvature="0"
       id="path3926"
       d="m 128,100.36218 -28,0 0,-11.999997 4,-4 -4,0 0,-4 4,0 -4,-4 0,-4 -4,-4 -8,0 -4,4 0,8 -4,4 0,31.999997 4,4 0,28 12,0 0,-16 32,0 z"
       style="fill:#e6e6e6;stroke:#000000;stroke-width:1px;stroke-linecap:butt;stroke-linejoin:miter;stroke-opacity:1" />
    <path
       inkscape:connector-curvature="0"
       id="path3928"
       d="m 120,136.36218 -4,-4 -16,0 0,20 -12,0 0,28 4,4 0,4 -8,4 0,60 16,8 4,-4 0,-60 -4,-4 0,-16 4,-4 8,0 0,-20 -4,-4 0,-4 4,-4 8,0 z"
       style="fill:#e6e6e6;stroke:#000000;stroke-width:1px;stroke-linecap:butt;stroke-linejoin:miter;stroke-opacity:1" />
    <path
       inkscape:connector-curvature="0"
       id="path3930"
       d="m 116,196.36218 -4,-4 -8,0 0,64 -4,4 0,36 4,4 0,72 12,0 0,-176 -4,-4"
       style="fill:#e6e6e6;stroke:#000000;stroke-width:1px;stroke-linecap:butt;stroke-linejoin:miter;stroke-opacity:1" />
    <path
       sodipodi:nodetypes="cccccccccccccccc"
       inkscape:connector-curvature="0"
       id="path3932"
       d="m 160,208.36218 -20,0 0,48 8,12 0,152 20,0 0,16 -12,0 0,8 12,0 0,160 16,0 0,-252 -20,0 -4,-4 z"
       style="fill:#e6e6e6;stroke:#000000;stroke-width:1px;stroke-linecap:butt;stroke-linejoin:miter;stroke-opacity:1" />
    <path
       inkscape:connector-curvature="0"
       id="path3934"
       d="m 148,268.36218 -4,-4 -12,0 0,40 16,0 z"
       style="fill:#ff9955;stroke:#000000;stroke-width:1px;stroke-linecap:butt;stroke-linejoin:miter;stroke-opacity:1" />
    <path
       sodipodi:nodetypes="cccccccccccccccccc"
       inkscape:connector-curvature="0"
       id="path3936"
       d="m 188,276.36218 -4,-4 0,-4 -8,-8 -8,0 -8,8 0,72 20,0 0,-24 4,-4 0,-8 4,-4 -4,-4 4,-4 -4,-4 4,-4 -4,-4 z"
       style="fill:#ff9955;stroke:#000000;stroke-width:1px;stroke-linecap:butt;stroke-linejoin:miter;stroke-opacity:1" />
    <path
       inkscape:connector-curvature="0"
       id="path3938"
       d="m 148,340.36218 -12,0 0,132 12,0 z"
       style="fill:#ff9955;stroke:#000000;stroke-width:1px;stroke-linecap:butt;stroke-linejoin:miter;stroke-opacity:1" />
    <path
       sodipodi:nodetypes="cccccccccccccccccccccccccccccccccccccccccccccccccccccccccccccccccccccccccccccccccccccc"
       inkscape:connector-curvature="0"
       id="path3940"
       d="m 196,272.36218 4,0 4,8 0,28 8,0 0,28 40,0 0,8 -36,0 0,28 72,0 0,8 -68,0 0,8 68,0 0,8 -48,0 0,40 24,0 0,-8 28,0 0,28 8,-4 0,12 -24,0 0,40 -12,0 0,4 4,4 -4,4 4,4 -4,4 0,4 28,0 0,8 -4,4 -32,0 4,4 -4,0 4,4 -4,0 4,4 -4,0 4,4 -4,0 4,4 -4,0 4,4 -4,0 4,4 -4,0 4,4 -4,0 4,4 -4,0 4,4 -4,0 4,4 -4,0 4,4 -4,0 4,4 -4,0 4,4 -4,0 4,4 -4,0 4,4 -4,0 4,4 -4,0 -4,20 -8,0 -4,-124 12,0 0,-4 -8,-4 0,-32 -8,0 0,12 -4,4 -16,0 0,-8 -8,4 -12,0 z"
       style="fill:#e6e6e6;stroke:#000000;stroke-width:1px;stroke-linecap:butt;stroke-linejoin:miter;stroke-opacity:1" />
    <path
       inkscape:connector-curvature="0"
       id="path3942"
       d="m 264,324.36218 -12,0 0,24 -32,0 0,24 60,0 8,-16 -12,-4 0,-8 -12,0 z"
       style="fill:#ff9955;stroke:#000000;stroke-width:1px;stroke-linecap:butt;stroke-linejoin:miter;stroke-opacity:1" />
    <path
       sodipodi:nodetypes="ccccccc"
       inkscape:connector-curvature="0"
       id="path3944"
       d="m 288,328.36218 -8,-4 -16,0 0,20 12,0 0,-8 z"
       style="fill:#e6e6e6;stroke:#000000;stroke-width:1px;stroke-linecap:butt;stroke-linejoin:miter;stroke-opacity:1" />
    <path
       inkscape:connector-curvature="0"
       id="path3946"
       d="m 276,464.36218 0,40 12,0 0,-12 -4,-4 0,-4 4,-4 12,0 0,-4 8,-4 0,-4 -8,-4 z"
       style="fill:#ff9955;stroke:#000000;stroke-width:1px;stroke-linecap:butt;stroke-linejoin:miter;stroke-opacity:1" />
    <path
       sodipodi:nodetypes="cccccccccccc"
       inkscape:connector-curvature="0"
       id="path3948"
       d="m 308,488.36218 -16,-4 0,20 -4,4 -24,0 4,4 -4,4 4,4 0,4 28,0 12,-28 z"
       style="fill:#e6e6e6;stroke:#000000;stroke-width:1px;stroke-linecap:butt;stroke-linejoin:miter;stroke-opacity:1" />
    <path
       sodipodi:nodetypes="ccccccccccccccccccc"
       inkscape:connector-curvature="0"
       id="path3950"
       d="m 104,320.36218 -12,0 0,92 8,4 0,32 -8,4 0,44 4,4 0,140 28,40 60,0 0,-24 -4,-4 0,-12 -48,0 -20,-28 0,-48 -8,-4 z"
       style="fill:#e6e6e6;stroke:#000000;stroke-width:1px;stroke-linecap:butt;stroke-linejoin:miter;stroke-opacity:1" />
    <path
       inkscape:connector-curvature="0"
       id="path3952"
       d="m 168,552.36218 -8,-8 0,-24 -16,0 0,84 24,0 z"
       style="fill:#ff9955;stroke:#000000;stroke-width:1px;stroke-linecap:butt;stroke-linejoin:miter;stroke-opacity:1" />
    <path
       sodipodi:nodetypes="cccccccccccccccccccccccccccccccc"
       inkscape:connector-curvature="0"
       id="path3954"
       d="m 144,600.36218 0,-104 -8,0 0,20 -32,0 0,20 4,0 0,-12 4,0 0,-4 20,0 0,12 -16,0 0,16 16,0 0,12 -8,0 0,-8 -12,0 0,60 20,28 40,0 0,-16 4,0 8,-4 0,-8 -48,0 -8,-4 -4,-20 4,0 4,12 z"
       style="fill:#e6e6e6;stroke:#000000;stroke-width:1px;stroke-linecap:butt;stroke-linejoin:miter;stroke-opacity:1" />
    <path
       inkscape:connector-curvature="0"
       id="path3956"
       d="M 140,496.36218 z"
       style="fill:#e6e6e6;stroke:#000000;stroke-width:1px;stroke-linecap:butt;stroke-linejoin:miter;stroke-opacity:1" />
    <path
       inkscape:connector-curvature="0"
       id="path3958"
       d="m 184,656.36218 -4,-4 0,-28 24,0 0,32 -20,0"
       style="fill:#e6e6e6;stroke:#000000;stroke-width:1px;stroke-linecap:butt;stroke-linejoin:miter;stroke-opacity:1" />
    <path
       inkscape:connector-curvature="0"
       id="path3960"
       d="m 204,612.36218 c 0,4 0,44 0,44 l -4,0 0,12 8,0 0,8 12,0 4,-4 -4,-4 4,-4 -4,-4 4,-4 -4,-4 4,-4 -4,-4 4,-4 -4,-4 4,-4 -4,-4 4,-4 -4,-4 0,-8 z"
       style="fill:#e6e6e6;stroke:#000000;stroke-width:1px;stroke-linecap:butt;stroke-linejoin:miter;stroke-opacity:1" />
    <path
       inkscape:connector-curvature="0"
       id="path3962"
       d="m 224,620.36218 0,4 -4,4 4,4 -4,4 4,4 -4,4 4,4 -4,4 4,4 -4,4 4,4 -4,4 4,4 -4,4 4,4 -4,4 4,4 0,20 -12,16 0,12 4,4 8,0 4,-4 0,-8 12,-24 0,-4 4,0 -4,-4 4,0 -4,-4 4,0 -4,-4 4,0 -4,-4 4,0 c 0,0 -4,-4 -4,-4 0,0 4,0 4,0 l -4,-4 4,0 -4,-4 4,0 -4,-4 c 0,0 4,0 4,0 l -4,-4 4,0 -4,-4 c 0,0 4,0 4,0 0,0 -4,-4 -4,-4 l 4,0 c 0,0 -4,-4 -4,-4 l 4,0 -4,-4 4,0 -4,-4 4,0 -4,-4 4,0 -4,-4 4,0 -4,-4 4,0 -4,-4 0,-4 -4,-4 -12,0"
       style="fill:#ff9955;stroke:#000000;stroke-width:1px;stroke-linecap:butt;stroke-linejoin:miter;stroke-opacity:1" />
    <path
       inkscape:connector-curvature="0"
       id="path3964"
       d="m 184,680.36218 -60,0 0,8 44,0 0,12 16,0 z"
       style="fill:#ff9955;stroke:#000000;stroke-width:1px;stroke-linecap:butt;stroke-linejoin:miter;stroke-opacity:1" />
    <path
       inkscape:connector-curvature="0"
       id="path3966"
       d="m 184,696.36218 0,4 -12,0 0,8 -8,8 0,8 20,0 8,-8 0,-12 0,-8 z"
       style="fill:#e6e6e6;stroke:#000000;stroke-width:1px;stroke-linecap:butt;stroke-linejoin:miter;stroke-opacity:1" />
    <path
       style="fill:#e6e6e6;stroke:#000000;stroke-width:1px;stroke-linecap:butt;stroke-linejoin:miter;stroke-opacity:1"
       d="m 564,188.36218 -4,4 4,4 -4,4 4,4 -4,4 4,4 0,8 -20,0 0,24 -24,0 -8,0 -8,8 0,4 8,0 0,12 -8,0 -12,16 0,20 0,20 4,4 8,0 4,-4 0,-12 8,-4 0,-32 12,-16 12,0 0,48 8,0 4,-4 -4,-4 4,-4 -4,-4 4,-4 -4,-4 4,-4 -4,-4 4,-4 -4,-4 0,-20 4,-4 20,0 4,-4 0,-60 -12,0 z"
       id="path3838"
       inkscape:connector-curvature="0"
       sodipodi:nodetypes="ccccccccccccccccccccccccccccccccccccccccccccccc" />
    <path
       style="fill:#ff9955;stroke:#000000;stroke-width:1px;stroke-linecap:butt;stroke-linejoin:miter;stroke-opacity:1"
       d="m 520,208.36218 16,-16 24,0 4,4 -4,4 4,4 -4,4 0,8 -20,0 0,28 -20,0 z"
       id="path3832"
       inkscape:connector-curvature="0"
       sodipodi:nodetypes="cccccccccccc" />
    <rect
       style="fill:#000000;fill-opacity:1;fill-rule:nonzero;stroke:#000000;stroke-width:2;stroke-miterlimit:4;stroke-dasharray:none;stroke-dashoffset:0"
       id="rect3812-4"
       width="42.990665"
       height="7.3456593"
       x="420"
       y="380.36218"
       ry="0" />
    <path
       style="fill:#e6e6e6;stroke:#000000;stroke-width:1px;stroke-linecap:butt;stroke-linejoin:miter;stroke-opacity:1"
       d="m 536,192.36218 8,-8 8,0 0,-12 20,-12 0,-12 8,-4 0,20 -20,12 0,16 -24,0"
       id="path3836"
       inkscape:connector-curvature="0"
       sodipodi:nodetypes="ccccccccccc" />
    <path
       style="fill:#e6e6e6;stroke:#000000;stroke-width:1px;stroke-linecap:butt;stroke-linejoin:miter;stroke-opacity:1"
       d="m 580,184.36218 0,-40 0,-4 4,-4 -4,0 4,-4 -4,0 4.5,-4.5 -4.5,0.5 4,-4 -4,0 4,-4 -4,0 8,-8 -4,0 4,-4 -4,0 4,-4 20,-4 0,32 4,0 0,12 12,0 0,32 -8,0 0,-24 -16,0 0,4 12,0 0,84 8,24 0,60 -8,0 0,-56 -4,-8 -12,-4 0,-72 z"
       id="path3840"
       inkscape:connector-curvature="0"
       sodipodi:nodetypes="cccccccccccccccccccccccccccccccccccccc" />
    <path
       style="fill:#e6e6e6;stroke:#000000;stroke-width:1px;stroke-linecap:butt;stroke-linejoin:miter;stroke-opacity:1"
       d="m 608,100.36218 28,0 0,-11.999997 -4,-4 4,0 0,-4 -4,0 4,-4 0,-4 4,-4 8,0 4,4 0,8 4,4 0,31.999997 -4,4 0,28 -12,0 0,-16 -32,0 z"
       id="path3842"
       inkscape:connector-curvature="0"
       sodipodi:nodetypes="ccccccccccccccccccccc" />
    <path
       style="fill:#e6e6e6;stroke:#000000;stroke-width:1px;stroke-linecap:butt;stroke-linejoin:miter;stroke-opacity:1"
       d="m 616,136.36218 4,-4 16,0 0,20 12,0 0,28 -4,4 0,4 8,4 0,60 -16,8 -4,-4 0,-60 4,-4 0,-16 -4,-4 -8,0 0,-20 4,-4 0,-4 -4,-4 -8,0 z"
       id="path3844"
       inkscape:connector-curvature="0" />
    <path
       style="fill:#e6e6e6;stroke:#000000;stroke-width:1px;stroke-linecap:butt;stroke-linejoin:miter;stroke-opacity:1"
       d="m 620,196.36218 4,-4 8,0 0,64 4,4 0,36 -4,4 0,72 -12,0 0,-176 4,-4"
       id="path3846"
       inkscape:connector-curvature="0" />
    <path
       style="fill:#e6e6e6;stroke:#000000;stroke-width:1px;stroke-linecap:butt;stroke-linejoin:miter;stroke-opacity:1"
       d="m 576,208.36218 20,0 0,48 -8,12 0,152 -20,0 0,16 12,0 0,8 -12,0 0,160 -16,0 0,-252 20,0 4,-4 z"
       id="path3848"
       inkscape:connector-curvature="0"
       sodipodi:nodetypes="cccccccccccccccc" />
    <path
       style="fill:#ff9955;stroke:#000000;stroke-width:1px;stroke-linecap:butt;stroke-linejoin:miter;stroke-opacity:1"
       d="m 588,268.36218 4,-4 12,0 0,40 -16,0 z"
       id="path3850"
       inkscape:connector-curvature="0" />
    <path
       style="fill:#ff9955;stroke:#000000;stroke-width:1px;stroke-linecap:butt;stroke-linejoin:miter;stroke-opacity:1"
       d="m 548,276.36218 4,-4 0,-4 8,-8 8,0 8,8 0,72 -20,0 0,-24 -4,-4 0,-8 -4,-4 4,-4 -4,-4 4,-4 -4,-4 4,-4 z"
       id="path3852"
       inkscape:connector-curvature="0"
       sodipodi:nodetypes="cccccccccccccccccc" />
    <path
       style="fill:#ff9955;stroke:#000000;stroke-width:1px;stroke-linecap:butt;stroke-linejoin:miter;stroke-opacity:1"
       d="m 588,340.36218 12,0 0,132 -12,0 z"
       id="path3854"
       inkscape:connector-curvature="0" />
    <path
       style="fill:#e6e6e6;stroke:#000000;stroke-width:1px;stroke-linecap:butt;stroke-linejoin:miter;stroke-opacity:1"
       d="m 540,272.36218 -4,0 -4,8 0,28 -8,0 0,28 -40,0 0,8 36,0 0,28 -72,0 0,8 68,0 0,8 -68,0 0,8 48,0 0,40 -24,0 0,-8 -28,0 0,28 -8,-4 0,12 24,0 0,40 12,0 0,4 -4,4 4,4 -4,4 4,4 0,4 -28,0 0,8 4,4 32,0 -4,4 4,0 -4,4 4,0 -4,4 4,0 -4,4 4,0 -4,4 4,0 -4,4 4,0 -4,4 4,0 -4,4 4,0 -4,4 4,0 -4,4 4,0 -4,4 4,0 -4,4 4,0 -4,4 4,0 -4,4 4,0 -4,4 4,0 -4,4 4,0 -4,4 4,0 4,20 8,0 4,-124 -12,0 0,-4 8,-4 0,-32 8,0 0,12 4,4 16,0 0,-8 8,4 12,0 z"
       id="path3856"
       inkscape:connector-curvature="0"
       sodipodi:nodetypes="cccccccccccccccccccccccccccccccccccccccccccccccccccccccccccccccccccccccccccccccccccccc" />
    <path
       style="fill:#ff9955;stroke:#000000;stroke-width:1px;stroke-linecap:butt;stroke-linejoin:miter;stroke-opacity:1"
       d="m 472,324.36218 12,0 0,24 32,0 0,24 -60,0 -8,-16 12,-4 0,-8 12,0 z"
       id="path3858"
       inkscape:connector-curvature="0" />
    <path
       style="fill:#e6e6e6;stroke:#000000;stroke-width:1px;stroke-linecap:butt;stroke-linejoin:miter;stroke-opacity:1"
       d="m 448,328.36218 8,-4 16,0 0,20 -12,0 0,-8 z"
       id="path3860"
       inkscape:connector-curvature="0"
       sodipodi:nodetypes="ccccccc" />
    <path
       style="fill:#ff9955;stroke:#000000;stroke-width:1px;stroke-linecap:butt;stroke-linejoin:miter;stroke-opacity:1"
       d="m 460,464.36218 0,40 -12,0 0,-12 4,-4 0,-4 -4,-4 -12,0 0,-4 -8,-4 0,-4 8,-4 z"
       id="path3862"
       inkscape:connector-curvature="0" />
    <path
       style="fill:#e6e6e6;stroke:#000000;stroke-width:1px;stroke-linecap:butt;stroke-linejoin:miter;stroke-opacity:1"
       d="m 428,488.36218 16,-4 0,20 4,4 24,0 -4,4 4,4 -4,4 0,4 -28,0 -12,-28 z"
       id="path3864"
       inkscape:connector-curvature="0"
       sodipodi:nodetypes="cccccccccccc" />
    <path
       style="fill:#e6e6e6;stroke:#000000;stroke-width:1px;stroke-linecap:butt;stroke-linejoin:miter;stroke-opacity:1"
       d="m 632,320.36218 12,0 0,92 -8,4 0,32 8,4 0,44 -4,4 0,140 -28,40 -60,0 0,-24 4,-4 0,-12 48,0 20,-28 0,-48 8,-4 z"
       id="path3866"
       inkscape:connector-curvature="0"
       sodipodi:nodetypes="ccccccccccccccccccc" />
    <path
       style="fill:#ff9955;stroke:#000000;stroke-width:1px;stroke-linecap:butt;stroke-linejoin:miter;stroke-opacity:1"
       d="m 568,552.36218 8,-8 0,-24 16,0 0,84 -24,0 z"
       id="path3868"
       inkscape:connector-curvature="0" />
    <path
       style="fill:#e6e6e6;stroke:#000000;stroke-width:1px;stroke-linecap:butt;stroke-linejoin:miter;stroke-opacity:1"
       d="m 592,600.36218 0,-104 8,0 0,20 32,0 0,20 -4,0 0,-12 -4,0 0,-4 -20,0 0,12 16,0 0,16 -16,0 0,12 8,0 0,-8 12,0 0,60 -20,28 -40,0 0,-16 -4,0 -8,-4 0,-8 48,0 8,-4 4,-20 -4,0 -4,12 z"
       id="path3870"
       inkscape:connector-curvature="0"
       sodipodi:nodetypes="cccccccccccccccccccccccccccccccc" />
    <path
       style="fill:#e6e6e6;stroke:#000000;stroke-width:1px;stroke-linecap:butt;stroke-linejoin:miter;stroke-opacity:1"
       d="M 596,496.36218 z"
       id="path3872"
       inkscape:connector-curvature="0" />
    <path
       style="fill:#e6e6e6;stroke:#000000;stroke-width:1px;stroke-linecap:butt;stroke-linejoin:miter;stroke-opacity:1"
       d="m 552,656.36218 4,-4 0,-28 -24,0 0,32 20,0"
       id="path3874"
       inkscape:connector-curvature="0" />
    <path
       style="fill:#e6e6e6;stroke:#000000;stroke-width:1px;stroke-linecap:butt;stroke-linejoin:miter;stroke-opacity:1"
       d="m 532,612.36218 c 0,4 0,44 0,44 l 4,0 0,12 -8,0 0,8 -12,0 -4,-4 4,-4 -4,-4 4,-4 -4,-4 4,-4 -4,-4 4,-4 -4,-4 4,-4 -4,-4 4,-4 -4,-4 4,-4 0,-8 z"
       id="path3876"
       inkscape:connector-curvature="0" />
    <path
       style="fill:#ff9955;stroke:#000000;stroke-width:1px;stroke-linecap:butt;stroke-linejoin:miter;stroke-opacity:1"
       d="m 512,620.36218 0,4 4,4 -4,4 4,4 -4,4 4,4 -4,4 4,4 -4,4 4,4 -4,4 4,4 -4,4 4,4 -4,4 4,4 -4,4 0,20 12,16 0,12 -4,4 -8,0 -4,-4 0,-8 -12,-24 0,-4 -4,0 4,-4 -4,0 4,-4 -4,0 4,-4 -4,0 4,-4 -4,0 c 0,0 4,-4 4,-4 0,0 -4,0 -4,0 l 4,-4 -4,0 4,-4 -4,0 4,-4 c 0,0 -4,0 -4,0 l 4,-4 -4,0 4,-4 c 0,0 -4,0 -4,0 0,0 4,-4 4,-4 l -4,0 c 0,0 4,-4 4,-4 l -4,0 4,-4 -4,0 4,-4 -4,0 4,-4 -4,0 4,-4 -4,0 4,-4 -4,0 4,-4 0,-4 4,-4 12,0"
       id="path3878"
       inkscape:connector-curvature="0" />
    <path
       style="fill:#ff9955;stroke:#000000;stroke-width:1px;stroke-linecap:butt;stroke-linejoin:miter;stroke-opacity:1"
       d="m 552,680.36218 60,0 0,8 -44,0 0,12 -16,0 z"
       id="path3880"
       inkscape:connector-curvature="0" />
    <path
       style="fill:#e6e6e6;stroke:#000000;stroke-width:1px;stroke-linecap:butt;stroke-linejoin:miter;stroke-opacity:1"
       d="m 552,696.36218 0,4 12,0 0,8 8,8 0,8 -20,0 -8,-8 0,-12 0,-8 z"
       id="path3882"
       inkscape:connector-curvature="0" />
    <path
       style="fill:#ececec;stroke:#000000;stroke-width:1px;stroke-linecap:butt;stroke-linejoin:miter;stroke-opacity:1"
       d="m 292,404.36218 c 52,-20 100,-20 151.92857,-0.21428 z"
       id="path3772"
       inkscape:connector-curvature="0"
       sodipodi:nodetypes="ccc" />
    <path
       style="fill:#ececec;stroke:#000000;stroke-width:1.44960392px;stroke-linecap:butt;stroke-linejoin:miter;stroke-opacity:1"
       d="m 292,424.36218 152,4 0,28 -8,0 0,8 -136,0 0,-8 -8,0 z"
       id="path3774-1"
       inkscape:connector-curvature="0"
       sodipodi:nodetypes="ccccccccc" />
    <path
       style="fill:#999999;stroke:#000000;stroke-width:1px;stroke-linecap:butt;stroke-linejoin:miter;stroke-opacity:1"
       d="m 292,404.36218 152,0 -0.0714,22.28572 C 392,448.36218 344,448.36218 292,424.36218 z"
       id="path3774"
       inkscape:connector-curvature="0"
       sodipodi:nodetypes="ccccc" />
    <path
       style="fill:#999999;stroke:#000000;stroke-width:0.94815022px;stroke-linecap:butt;stroke-linejoin:miter;stroke-opacity:1"
       d="m 300,476.36218 c 60,8 76,8 136,0 l 0,8 c -40,24 -96,24 -136,0 z"
       id="path3774-7"
       inkscape:connector-curvature="0"
       sodipodi:nodetypes="ccccc" />
    <path
       style="fill:#e6e6e6;stroke:#000000;stroke-width:1px;stroke-linecap:butt;stroke-linejoin:miter;stroke-opacity:1"
       d="m 156,188.36217 0,-40 0,-4 -4,-4 4,0 -4,-4 4,0 -4.5,-4.5 4.5,0.5 -4,-4 4,0 -4,-4 4,0 -8,-7.99999 4,0 -4,-4 4,0 -4,-4 -20,-4 0,31.99999 -4,0 0,12 -12,0 0,32 8,0 0,-24 16,0 0,4 -12,0 0,84 -8,24 0,60 8,0 0,-56 4,-8 12,-4 0,-72 z"
       id="path3840-0"
       inkscape:connector-curvature="0"
       sodipodi:nodetypes="cccccccccccccccccccccccccccccccccccccc" />
  </g>
</svg>
